<svg xmlns="http://www.w3.org/2000/svg" width="1080" viewBox="0 0 810 810" height="1080" version="1.0"><path fill="#fff" d="M-81-81h972v972H-81z"/><path fill="#fff" d="M-81-81h972v972H-81z"/><path fill="#fff" d="M-81-81h972v972H-81z"/><path fill="#324860" d="M771.254 310.984C737.144 137.746 564.93 33.047 420.398 19.691 300.656 8.625 155.512 38.805 88.438 149.844c-41.098 68.039 9.601 97.996-18.833 248.578C44.996 528.754.141 575.71 27.445 642.137c22.32 54.308 73.11 78.11 106.453 94.527 131.422 64.711 373.485 59.574 517.22-58.473 33.636-27.625 158.714-171.246 120.136-367.207"/><path fill="#fff" d="M317.68 184.285c19.613-33.883 62.98-45.453 96.863-25.84 33.887 19.61 45.46 62.98 25.844 96.86-19.61 33.882-62.98 45.453-96.864 25.843-33.882-19.609-45.457-62.976-25.843-96.863Zm-46.758-3.504a113.333 113.333 0 0 0-5.016 18.516l-29.312 6.578-.028 27.54 29.336 6.651a115.821 115.821 0 0 0 4.942 18.512l-22.13 20.379 13.743 23.863 28.695-8.894a113.787 113.787 0 0 0 13.575 13.554l-8.97 28.711 23.833 13.793 20.426-22.082a114.479 114.479 0 0 0 18.515 5.024l6.582 29.308 27.54.024 6.652-29.332a115.423 115.423 0 0 0 18.511-4.946l20.38 22.133 23.87-13.746-8.902-28.691c4.848-4.082 9.375-8.63 13.563-13.574l28.707 8.972 13.793-23.836-22.075-20.422c2.2-6.093 3.883-12.28 5.016-18.52l29.309-6.581.03-27.535-29.339-6.649a115.712 115.712 0 0 0-4.941-18.511l22.128-20.387-13.746-23.86-28.695 8.895c-4.078-4.844-8.625-9.375-13.574-13.555l8.973-28.707-23.836-13.797-20.422 22.079a113.575 113.575 0 0 0-18.52-5.012l-6.578-29.313-27.539-.031-6.652 29.344a114.588 114.588 0 0 0-18.512 4.937L319.87 89.488l-23.863 13.739 8.894 28.691a114.108 114.108 0 0 0-13.558 13.574l-28.707-8.965-13.793 23.828 22.078 20.426"/><path fill="#99b9ff" d="M519.168 746.313H365.602L286.344 607.59v121.164c0 18.95 13.82 34.105 30.574 34.105h202.25c3.262 0 6.187-2.277 6.187-5.543v-5.425c0-3.262-2.925-5.578-6.187-5.578"/><path fill="#fff" d="M308.867 651.176v68.707c0 13.93 11.04 25.054 24.969 25.054h132.23v-93.761H308.867"/><path d="M310.246 652.55v67.333c0 13.277 10.36 23.672 23.59 23.672h130.848V652.55Zm157.195 93.763H333.836c-14.774 0-26.348-11.606-26.348-26.43v-70.086h159.953v96.515"/><path fill="#99b9ff" d="m724.941 657.512-644.722 1.41c-5.637 0-10.395-4.2-11.114-9.8L17.75 247.788c-1.25-9.766 5.867-18.988 15.695-18.988l636.383.582 55.113 428.129"/><path fill="#fff" d="M738.156 657H106.31c-5.633 0-10.387-4.203-11.11-9.824L44.168 249.449c-1.418-11.047 7.137-20.832 18.215-20.832h623.699c5.633 0 10.387 4.207 11.11 9.824l52.074 405.852c.867 6.738-4.356 12.707-11.11 12.707"/><path d="M62.383 229.992a16.96 16.96 0 0 0-12.719 5.762 17.153 17.153 0 0 0-4.129 13.52l51.031 397.73c.633 4.914 4.82 8.617 9.743 8.617H738.16a9.81 9.81 0 0 0 7.352-3.328 9.93 9.93 0 0 0 2.39-7.82l-52.078-405.856c-.633-4.918-4.824-8.625-9.738-8.625ZM738.16 658.38H106.31c-6.305 0-11.672-4.742-12.477-11.027L42.801 249.625a19.91 19.91 0 0 1 4.793-15.691 19.706 19.706 0 0 1 14.789-6.696h623.703c6.3 0 11.668 4.739 12.469 11.024l52.082 405.855a12.671 12.671 0 0 1-3.059 9.996 12.551 12.551 0 0 1-9.418 4.266"/><path fill="#324860" d="M93.848 190.563h553.375c12.21 0 23.324 9.937 24.82 22.19l46.68 382.747c1.511 12.387-7.223 22.43-19.504 22.43H142.73c-12.28 0-23.382-10.043-24.796-22.43L74.262 212.754c-1.399-12.254 7.37-22.191 19.586-22.191"/><path fill="#99b9ff" d="m673.797 226.305-1.047-13.754c-1.477-12.145-12.977-21.817-25.2-21.817H94.177c-12.215 0-21.11 9.672-19.723 21.817l1.297 16.933 598.047-3.18"/><path fill="#324860" d="M109.285 213.125c.453 3.953-2.379 7.152-6.328 7.152-3.945 0-7.512-3.199-7.96-7.152-.454-3.941 2.382-7.14 6.327-7.14 3.946 0 7.508 3.199 7.961 7.14M132.098 212.645c.453 3.949-2.38 7.152-6.325 7.152-3.945 0-7.511-3.203-7.964-7.152-.454-3.946 2.379-7.145 6.324-7.145s7.512 3.2 7.965 7.145M156.98 213.602c.454 3.945-2.378 7.148-6.324 7.148-3.949 0-7.515-3.203-7.969-7.148-.453-3.95 2.375-7.145 6.325-7.145 3.945 0 7.511 3.195 7.968 7.145"/><path fill="#fff" d="M200.668 440.691H253.5l-9.809-84.488-1.976 4.442Zm86.527 0h25.102l3.172 27.141h-25.11l5.262 45.133h-33.73l-5.239-45.133h-87.254l-3.34-20.598 71.227-136.675h34.746l15.164 130.132M426.496 389.809c-2.246-18.98-6.484-32.887-12.7-41.727-6.214-8.832-14.956-13.25-26.218-13.25-10.984 0-18.57 4.184-22.754 12.555-4.187 8.375-5.37 21.445-3.554 39.23l5.39 45.867c2.223 18.918 6.52 33.028 12.883 42.305 6.367 9.29 15.191 13.93 26.48 13.93 10.82 0 18.313-4.293 22.477-12.883 4.164-8.582 5.3-22.02 3.414-40.29Zm38.168 37.804c3.469 29.133.64 51.098-8.469 65.914-9.113 14.817-24.777 22.227-46.984 22.227-21.84 0-39.137-7.227-51.887-21.672-12.754-14.437-20.918-35.809-24.512-64.098l-4.101-35.035c-3.41-29.074-.543-50.867 8.605-65.39 9.141-14.516 24.829-21.77 47.07-21.77 22.055 0 39.344 7.066 51.868 21.219 12.527 14.148 20.61 35.34 24.246 63.578l4.164 35.027M523.488 440.695h52.832l-10.172-84.492-1.953 4.442Zm86.532 0h25.097l3.285 27.137h-25.105l5.453 45.133h-33.73l-5.434-45.133h-87.25l-3.43-20.598 70.649-136.671h34.75l15.715 130.132"/><path fill="#5479f7" d="M209.39 431.785h49.028l-9.05-77.965Zm50.579 2.762h-52.832a1.38 1.38 0 0 1-1.23-2.008l41.046-80.047 1.945-4.375a1.377 1.377 0 0 1 2.63.403l9.812 84.488c.043.39-.078.781-.34 1.078-.262.293-.637.46-1.031.46Zm9.617 69.512h30.953l-5.082-43.594a1.386 1.386 0 0 1 1.371-1.54h23.559l-2.852-24.378h-23.87c-.7 0-1.286-.524-1.368-1.219L277.27 304.414h-32.68l-70.63 135.527 3.08 18.985h86.077c.703 0 1.293.527 1.371 1.222Zm32.504 2.761h-33.73c-.7 0-1.29-.523-1.368-1.222l-5.101-43.914h-86.028a1.38 1.38 0 0 1-1.36-1.16l-3.339-20.598a1.37 1.37 0 0 1 .14-.86l71.227-136.668a1.371 1.371 0 0 1 1.223-.742h34.742c.703 0 1.29.524 1.371 1.219l15.024 128.91h23.875c.699 0 1.285.527 1.367 1.223l3.176 27.14a1.385 1.385 0 0 1-1.372 1.536H298.38l5.082 43.593c.043.395-.078.786-.344 1.078a1.372 1.372 0 0 1-1.027.465M394.047 328.688c-10.516 0-17.555 3.855-21.52 11.789-4.05 8.101-5.199 21.043-3.422 38.472l5.395 45.848c2.188 18.617 6.445 32.64 12.648 41.691 6.149 8.965 14.442 13.325 25.34 13.325 10.344 0 17.29-3.958 21.239-12.102 4.03-8.313 5.136-21.617 3.285-39.547l-5.418-45.719c-2.211-18.66-6.403-32.488-12.457-41.093-6-8.524-14.207-12.664-25.09-12.664Zm18.441 153.886c-11.715 0-21.008-4.887-27.613-14.527-6.46-9.422-10.875-23.863-13.113-42.926l-5.395-45.875c-1.836-17.976-.594-31.426 3.688-40 4.422-8.84 12.492-13.32 23.992-13.32 11.683 0 20.883 4.656 27.348 13.84 6.32 8.98 10.675 23.234 12.937 42.355l5.418 45.738c1.91 18.47.719 32.278-3.543 41.055-4.39 9.063-12.375 13.66-23.719 13.66Zm-21.633-180.933c-21.628 0-37.078 7.109-45.902 21.129-8.933 14.18-11.762 35.878-8.406 64.492l4.105 35.035c3.536 27.875 11.672 49.195 24.172 63.348 12.418 14.07 29.528 21.203 50.856 21.203 21.593 0 37.004-7.258 45.812-21.57 8.899-14.47 11.684-36.344 8.274-65.024l-4.168-35.027c-3.578-27.813-11.621-48.957-23.91-62.832-12.188-13.77-29.29-20.754-50.833-20.754Zm24.825 207.968c-22.153 0-39.961-7.453-52.926-22.14-12.867-14.578-21.23-36.39-24.84-64.836l-4.11-35.047c-3.425-29.258-.46-51.559 8.813-66.29 9.367-14.87 25.598-22.413 48.238-22.413 22.364 0 40.16 7.293 52.899 21.683 12.656 14.297 20.93 35.938 24.578 64.32l4.172 35.04c3.484 29.312.566 51.785-8.668 66.797-9.336 15.183-25.54 22.886-48.156 22.886M582.793 434.547h-52.832c-.484 0-.926-.25-1.18-.656a1.394 1.394 0 0 1-.054-1.344l40.71-80.05 1.922-4.376c.25-.57.852-.906 1.47-.808a1.38 1.38 0 0 1 1.163 1.199l6.32 52.484a1.377 1.377 0 0 1-1.207 1.531 1.356 1.356 0 0 1-1.53-1.195l-5.72-47.512-39.648 77.97h49.031l-1.125-9.294a1.382 1.382 0 0 1 1.207-1.531 1.365 1.365 0 0 1 1.535 1.2l1.305 10.839c.047.39-.078.781-.34 1.078a1.364 1.364 0 0 1-1.027.465Zm42.422 72.273h-33.727a1.383 1.383 0 0 1-1.367-1.215l-5.293-43.921h-86.023a1.38 1.38 0 0 1-1.364-1.149l-3.421-20.605c-.051-.29-.004-.59.132-.852l70.649-136.676a1.38 1.38 0 0 1 1.222-.746h34.747a1.38 1.38 0 0 1 1.37 1.215l4.266 35.29a1.384 1.384 0 0 1-2.746.332l-4.113-34.075h-32.684L496.81 439.93l3.164 18.996h86.086a1.38 1.38 0 0 1 1.367 1.215l5.285 43.921h30.95l-4.352-36.066a1.38 1.38 0 0 1 1.199-1.535c.754-.09 1.445.45 1.539 1.203l4.539 37.613c.047.387-.074.782-.336 1.078-.262.293-.64.465-1.035.465"/><path fill="#5479f7" d="M602.14 619.309H142.939c-12.946 0-24.684-10.614-26.172-23.653L73.098 212.91c-.73-6.363 1.082-12.347 5.093-16.844 3.961-4.441 9.594-6.886 15.86-6.886H647.43c12.863 0 24.613 10.504 26.183 23.406l15.184 124.465c.09.758-.45 1.441-1.203 1.535a1.39 1.39 0 0 1-1.54-1.207l-15.179-124.457c-1.406-11.567-11.93-20.977-23.445-20.977H94.05c-5.468 0-10.37 2.118-13.8 5.957-3.48 3.903-5.05 9.121-4.414 14.696l43.672 382.742c1.332 11.695 11.844 21.207 23.43 21.207H602.14c.761 0 1.382.621 1.382 1.383 0 .758-.62 1.379-1.382 1.379"/><path d="M518.207 763.781H324.035a1.381 1.381 0 0 1 0-2.762h194.172c2.465 0 4.395-2.011 4.395-4.582v-5.425c0-2.59-1.97-4.7-4.395-4.7h-56.281a1.378 1.378 0 1 1 0-2.757h56.281c3.945 0 7.148 3.343 7.148 7.457v5.426c0 4.046-3.203 7.343-7.148 7.343"/><path fill="#99b9ff" d="M261.059 749.074H93.727l15.835-31.168 13.801-27.144 15.422-30.328 13.793-27.13 17.945-35.269a7.695 7.695 0 0 1 6.868-4.203 7.698 7.698 0 0 1 6.87 4.203l17.942 35.266L216 660.426l15.422 30.32 13.8 27.16 15.837 31.168"/><path fill="#5479f7" d="M216 660.824h-77.215l13.793-27.574h49.625L216 660.824M245.223 717.816h-135.66l13.8-26.652h108.059l13.8 26.652"/><path d="M95.137 748.152h162.855l-28.629-56.78-47.16-92.708a6.29 6.29 0 0 0-5.637-3.45 6.303 6.303 0 0 0-5.64 3.462l-31.738 62.437-15.422 30.387-13.801 27.258Zm165.093 2.758H92.898c-.476 0-.921-.25-1.175-.656a1.383 1.383 0 0 1-.055-1.344l15.836-31.394 13.8-27.262 29.22-57.547 17.945-35.281a9.043 9.043 0 0 1 8.097-4.969 9.032 9.032 0 0 1 8.094 4.957l47.164 92.711 29.64 58.785a1.383 1.383 0 0 1-1.234 2"/><path fill="#5479f7" d="M276.57 749.652a5.602 5.602 0 0 0-5.601-5.605H82.989a5.606 5.606 0 0 0-5.606 5.605v17.72a5.607 5.607 0 0 0 5.605 5.6h187.98a5.604 5.604 0 0 0 5.602-5.6v-17.72"/><path d="M82.988 745.426a4.229 4.229 0 0 0-4.222 4.226v17.711a4.23 4.23 0 0 0 4.222 4.23h187.98a4.23 4.23 0 0 0 4.223-4.23v-17.71a4.229 4.229 0 0 0-4.222-4.227Zm187.98 28.926H82.989c-3.847 0-6.98-3.133-6.98-6.989v-17.71c0-3.852 3.133-6.985 6.98-6.985h187.98c3.848 0 6.981 3.133 6.981 6.984v17.711c0 3.856-3.133 6.989-6.98 6.989"/><path fill="#5479f7" d="M727.047 411.629c21.758 6.117 49.758 29.664 49.758 72.39 0 30.778-45.34 56.848-45.34 56.848l-7.473-18.355s24.988-18.504 23.79-40.106c-.962-17.324-28.891-22.703-28.891-22.703l8.156-48.074M717.871 762.734h-15.633V744.38h15.633v18.355M676.262 759.332l-15.211 3.59-4.223-17.86 15.223-3.593 4.21 17.863"/><path d="M730.79 516.652s4.663 36.914 1.081 51.246c-3.578 14.332-11.965 146.77-11.965 182.602h-21.07l-9.52-169.27-29.406 61.418a26.264 26.264 0 0 0-1.55 15.805l17.363 92.047-19.72 1.355-32.956-101.062a29.355 29.355 0 0 1-.317-15.39l26.727-106.915 81.332-11.836"/><path fill="#fff" d="M690.34 578.875c-.305 0-.606-.098-.867-.3a1.38 1.38 0 0 1-.211-1.942l10.87-13.594a1.383 1.383 0 0 1 1.942-.215c.594.473.692 1.344.211 1.938l-10.87 13.593c-.278.344-.677.52-1.075.52M718.895 758.656h-18.36l-2.719 13.852c-.523 2.672 1.403 5.183 3.989 5.183h15.82c2.578 0 4.512-2.511 3.988-5.183l-2.718-13.852"/><path d="m701.668 760.035-2.504 12.738c-.18.926.047 1.856.629 2.563.516.629 1.23.976 2.008.976h15.82c.777 0 1.492-.347 2.008-.976a3.079 3.079 0 0 0 .629-2.563l-2.504-12.738Zm15.953 19.031h-15.82c-1.594 0-3.102-.718-4.137-1.98a5.838 5.838 0 0 1-1.207-4.84l2.723-13.855a1.383 1.383 0 0 1 1.351-1.114h18.36a1.38 1.38 0 0 1 1.351 1.114l2.719 13.855a5.796 5.796 0 0 1-1.203 4.84c-1.035 1.262-2.543 1.98-4.137 1.98"/><path d="M718.89 774.648h-19.038a1.379 1.379 0 1 1 0-2.757h19.039a1.38 1.38 0 0 1 1.375 1.379c0 .765-.618 1.378-1.375 1.378"/><path fill="#fff" d="m676.738 754.574 5.032 16.684c.87 2.902-.899 5.972-3.497 6.058l-34.53 1.168c-2.138.075-2.99-3.234-1.184-4.59 5.617-4.222 13.093-10.09 15.144-12.87 4.766-6.45 9.524-.805 9.524-.805s3.394-5.645 9.511-5.645"/><path d="M662.668 759.313h-.113c-1.278.05-2.532.902-3.739 2.53-1.71 2.321-6.906 6.743-15.425 13.15-.48.359-.512 1.038-.34 1.519.062.183.25.597.629.597h.015l34.532-1.172c.894-.027 1.468-.648 1.734-1.011.637-.895.824-2.153.488-3.266l-4.715-15.644c-4.625.566-7.3 4.87-7.328 4.918a1.386 1.386 0 0 1-2.234.175c-.016-.015-1.57-1.797-3.504-1.797Zm-18.992 20.55c-1.442 0-2.7-.941-3.227-2.433-.613-1.739-.094-3.602 1.281-4.637 8.079-6.074 13.36-10.543 14.864-12.586 1.742-2.355 3.718-3.578 5.886-3.648 1.926-.094 3.508.824 4.543 1.605 1.528-1.851 4.825-4.969 9.72-4.969.605 0 1.144.399 1.323.985l5.02 16.68c.594 1.952.262 4.074-.887 5.671-.949 1.324-2.367 2.114-3.879 2.164l-34.527 1.168h-.117"/><path fill="#fff" d="m647.512 773.27 31.27-1.36-31.27 1.36"/><path d="M647.508 774.648c-.73 0-1.348-.578-1.375-1.316a1.377 1.377 0 0 1 1.316-1.437l31.27-1.364a1.36 1.36 0 0 1 1.437 1.32 1.38 1.38 0 0 1-1.32 1.442l-31.27 1.355h-.058"/><path fill="#fff" d="m695.098 402.113 16.996 11.555-46.801-2.238 13.484-8.637 1.82-8.363c-2.394-.36-5.687-.594-6.734-1.903-1.851-2.304-1.015-10.28-1.015-10.28l-2.028-1.59a.871.871 0 0 1-.441-.536.91.91 0 0 1 .101-.691c1.723-2.743 3.348-3.63 4.11-6.422.75-2.762.418-2.34 3.387-8.285l17.8-.028.098 13.34s2.734-1.758 4.46.625c1.259 1.73-1.526 7.527-3.784 7.527l-1.453 15.926"/><path d="m669.676 410.258 37.597 1.8-12.957-8.808a1.382 1.382 0 0 1-.59-1.266l1.454-15.921c.066-.711.66-1.25 1.37-1.25.188-.016.97-.508 1.782-1.981.902-1.629 1.05-3.062.883-3.375-.934-1.277-2.422-.367-2.59-.262-.422.278-.96.297-1.406.059a1.377 1.377 0 0 1-.719-1.203l-.094-11.969-15.574.023c-2.133 4.282-2.234 4.68-2.652 6.278l-.262.984c-.559 2.047-1.523 3.219-2.54 4.469-.476.578-.968 1.176-1.464 1.922l1.785 1.406c.375.297.57.758.52 1.227-.32 3.082-.313 7.992.722 9.277.547.684 3.168 1.035 4.735 1.242.383.055.761.106 1.125.156.375.055.715.266.933.579.215.316.286.703.211 1.074l-1.82 8.367c-.074.36-.29.672-.598.871Zm42.414 4.789h-.067l-46.796-2.242a1.382 1.382 0 0 1-1.27-1.024 1.381 1.381 0 0 1 .594-1.515l13.004-8.325 1.379-6.343c-2.48-.34-4.97-.735-6.149-2.203-1.84-2.301-1.574-8.168-1.379-10.524l-1.355-1.07a2.23 2.23 0 0 1-1-1.317 2.234 2.234 0 0 1 .265-1.785c.684-1.09 1.348-1.898 1.93-2.613.938-1.14 1.61-1.969 2.016-3.45.093-.363.176-.671.25-.952.508-1.942.68-2.47 3.23-7.575.235-.464.711-.757 1.235-.765l17.796-.02h.004c.758 0 1.375.61 1.375 1.367l.09 11.407c1.422-.215 3.043.144 4.215 1.754 1.367 1.894-.059 5.046-.527 5.968-.457.903-1.547 2.735-3.094 3.45l-1.297 14.156 16.328 11.101c.508.348.73.993.535 1.578a1.386 1.386 0 0 1-1.312.942"/><path d="M697.422 392.152c-3.59 1.196-7.129-1.609-7.758-2.113-2.496-1.976-4.531-5.5-3.531-7.055.55-.851 1.531-.382 2.82-1.406 1.899-1.512 2.438-4.77 1.41-5.644-.84-.723-2.148.656-3.523 0-1.68-.809-.817-3.383-2.121-5.645-2.117-3.707-7.059-1.469-10.856-5.41-2.48-2.578-3.558-6.863-2.14-9.29.418-.698 1.047-1.331 1.949-1.827 5.973-3.293 6.867 1.215 12.691 1.265 11.969.102 17.844 2.496 20.012 7.457 1.469 3.368-.328 8.73-1.2 11.329-.288.87-.894 2.507-1.413 4.945-.555 2.664-.387 3.344-.7 4.937-.226 1.114-1.414 7.051-5.64 8.457"/><path fill="#fff" d="M670.602 371.266s5.28 1.953 6.437-.692c1.152-2.637-.691-4.824 2.18-6.89 2.875-2.067 9.77-4.254 7.246-7.356-2.535-3.105-10.235-4.367-12.414-.691-2.184 3.68-3.797 10-5.29 10.113-1.491.113-.937 4.867 1.84 5.516"/><path d="M671.078 369.973c1.66.609 4.293.98 4.695.05.325-.757.325-1.484.325-2.328-.008-1.543-.02-3.453 2.316-5.132.805-.579 1.828-1.13 2.91-1.711 1.54-.832 4.117-2.215 4.297-3.125.024-.13-.05-.309-.23-.532-1.243-1.515-4.336-2.593-6.926-2.402-.899.062-2.52.355-3.235 1.547-.828 1.406-1.617 3.32-2.308 5.008-1.305 3.183-2.145 5.222-3.574 5.687-.047.344.004 1.031.351 1.742.172.364.567.993 1.211 1.145.059.012.113.031.168.05Zm3.16 3.367c-1.785 0-3.543-.578-4.039-.75-2.707-.692-3.754-3.79-3.61-5.695.118-1.59.981-2.313 1.817-2.485.492-.531 1.375-2.668 1.961-4.11.73-1.773 1.559-3.788 2.496-5.37.996-1.684 2.918-2.703 5.395-2.887 3.531-.27 7.441 1.176 9.273 3.414.899 1.106.93 2.137.793 2.805-.437 2.187-3.113 3.625-5.695 5.015-1.004.54-1.945 1.047-2.606 1.528-1.18.847-1.18 1.527-1.171 2.879.003.957.007 2.148-.551 3.441-.75 1.727-2.418 2.215-4.063 2.215"/><path fill="#5479f7" d="M647.512 408.914s40.781-11.555 79.535 2.719a871.081 871.081 0 0 1 6.453 43.758c2.516 20.687.95 14.078 4.086 44.27 1.941 18.765 2.46 20.487.676 23.792-8.992 16.672-45.223 15.766-59.14 12.238-.99-.254-5.079-1.328-11.77-3.015a1562.954 1562.954 0 0 0-18.145-4.465c-2.273-1.027-5.336-2.848-7.48-6.117-4.793-7.317-1.586-16.785 0-23.11 4.082-16.25-1.278-16.597 0-46.226.449-10.36 1.753-25.41 5.785-43.844"/><path fill="#fff" d="M722.121 536.164a1.377 1.377 0 0 1-.195-2.742c.734-.11 18.07-2.863 15.773-19.293a1.388 1.388 0 0 1 1.18-1.559 1.377 1.377 0 0 1 1.55 1.176c2.68 19.16-17.902 22.375-18.113 22.406a1.638 1.638 0 0 1-.195.012M674.879 520.3c-.348 0-.7-.124-.969-.39-16.254-16.027-19.613-40.277-19.746-41.305a1.378 1.378 0 1 1 2.734-.36c.036.243 3.38 24.353 18.95 39.696a1.38 1.38 0 0 1 .015 1.95c-.27.277-.625.41-.984.41"/><path fill="#5479f7" d="M633.031 387.031a1.554 1.554 0 0 1 1.262-1.472l40.293-12.555-3.492-8.305s-54.563-17.324-80.157 4.778c-25.605 22.093 25.856 76.691 54.907 89.336l26.601-53.395-38.261-16.824a1.562 1.562 0 0 1-1.153-1.563"/><path fill="#fff" d="M757.719 251.281c0 30.64-24.84 55.48-55.48 55.48-30.65 0-55.489-24.84-55.489-55.48 0-30.64 24.84-55.48 55.488-55.48 30.64 0 55.48 24.84 55.48 55.48"/><path d="M702.234 197.176c-29.836 0-54.105 24.277-54.105 54.105 0 29.836 24.27 54.102 54.105 54.102 29.832 0 54.106-24.266 54.106-54.102 0-29.828-24.274-54.105-54.106-54.105Zm0 110.969c-31.355 0-56.863-25.512-56.863-56.864 0-31.351 25.508-56.855 56.863-56.855 31.352 0 56.86 25.504 56.86 56.855 0 31.352-25.508 56.864-56.86 56.864"/><path fill="#99b9ff" d="M737.188 251.281c0 19.309-15.645 34.953-34.954 34.953-19.312 0-34.957-15.644-34.957-34.953 0-19.304 15.645-34.949 34.957-34.949 19.309 0 34.953 15.645 34.953 34.95"/><path fill="#fff" d="M687.203 267.102c-.121 0-.246-.012-.367-.043a1.385 1.385 0 0 1-.969-1.696c2.047-7.48 8.903-12.699 16.656-12.699a17.28 17.28 0 0 1 16.348 11.66 1.381 1.381 0 0 1-.855 1.754 1.385 1.385 0 0 1-1.754-.855 14.523 14.523 0 0 0-13.739-9.805c-6.515 0-12.273 4.387-13.996 10.676a1.371 1.371 0 0 1-1.324 1.008M690.79 245.363a1.38 1.38 0 0 1-.981-.402l-7.852-7.856a1.38 1.38 0 0 1 1.953-1.945l7.856 7.848c.535.539.535 1.414 0 1.953-.274.27-.621.402-.977.402"/><path fill="#fff" d="M690.79 245.363a1.38 1.38 0 0 1-.981-.402l-7.852-7.856a1.38 1.38 0 0 1 1.953-1.945l7.856 7.848c.535.539.535 1.414 0 1.953-.274.27-.621.402-.977.402"/><path fill="#fff" d="M682.934 245.363c-.352 0-.707-.133-.977-.402a1.389 1.389 0 0 1 0-1.953l7.852-7.848a1.38 1.38 0 1 1 1.957 1.945l-7.856 7.856c-.27.27-.62.402-.976.402M722.035 245.371c-.347 0-.7-.137-.969-.406l-7.855-7.852a1.37 1.37 0 0 1 0-1.949c.539-.539 1.41-.539 1.95 0l7.855 7.852c.535.535.535 1.41 0 1.949-.27.27-.63.406-.98.406"/><path fill="#fff" d="M714.184 245.371c-.352 0-.704-.137-.973-.406a1.37 1.37 0 0 1 0-1.95l7.855-7.85a1.377 1.377 0 0 1 1.95 0c.535.538.535 1.41 0 1.948l-7.856 7.852c-.27.27-.62.406-.976.406"/><path d="M514.863 77.984c-.234 0-.476-.046-.707-.144-54.52-22.723-117.426-29.664-181.898-20.063a1.838 1.838 0 0 1-.54-3.636c65.134-9.7 128.708-2.676 183.852 20.304a1.84 1.84 0 0 1 .992 2.407 1.853 1.853 0 0 1-1.699 1.132"/><path d="M541.117 70.145c-.277 0-.57-.075-.84-.211a290.431 290.431 0 0 0-14.441-7.012c-68.594-30.988-151.59-36.848-233.711-16.5a1.838 1.838 0 0 1-2.227-1.34 1.838 1.838 0 0 1 1.34-2.23c82.922-20.543 166.774-14.606 236.114 16.722a292.565 292.565 0 0 1 14.625 7.098 1.836 1.836 0 0 1 .777 2.476 1.836 1.836 0 0 1-1.637.997M599.043 135.14c-.734 0-1.34-.574-1.375-1.312a1.376 1.376 0 0 1 1.309-1.441l6.625-.32a1.379 1.379 0 0 1 1.441 1.308c.039.762-.55 1.41-1.309 1.45l-6.625.316h-.066M622.223 134.031c-.739 0-1.34-.578-1.38-1.316a1.374 1.374 0 0 1 1.313-1.442l6.621-.316a1.386 1.386 0 0 1 1.446 1.305 1.381 1.381 0 0 1-1.317 1.445l-6.613.324h-.07M614.75 149.324a1.38 1.38 0 0 1-1.383-1.304l-.351-6.622a1.38 1.38 0 0 1 1.3-1.449c.774-.02 1.414.543 1.45 1.301l.359 6.621a1.376 1.376 0 0 1-1.305 1.453h-.07M613.5 126.145c-.73 0-1.336-.57-1.379-1.305l-.36-6.621a1.386 1.386 0 0 1 1.31-1.453c.75-.028 1.406.543 1.449 1.3l.355 6.625c.04.762-.54 1.41-1.3 1.45-.024.004-.052.004-.075.004M553.527 692.707c-.25 0-.5-.066-.726-.207l-4.715-2.918a1.379 1.379 0 0 1 1.45-2.344l4.718 2.918c.648.399.848 1.25.441 1.899a1.359 1.359 0 0 1-1.168.652M570.027 702.914c-.246 0-.496-.066-.722-.203l-4.715-2.922a1.379 1.379 0 1 1 1.45-2.344l4.714 2.914c.652.403.851 1.25.445 1.903a1.365 1.365 0 0 1-1.172.652M552.914 707.004c-.246 0-.496-.067-.719-.207a1.378 1.378 0 0 1-.46-1.895l2.894-4.73a1.374 1.374 0 0 1 1.894-.457c.649.394.856 1.246.457 1.894l-2.89 4.735c-.262.422-.711.66-1.176.66M563.031 690.438a1.383 1.383 0 0 1-1.176-2.098l2.895-4.735a1.37 1.37 0 0 1 1.89-.457 1.37 1.37 0 0 1 .462 1.895l-2.887 4.734c-.266.426-.715.66-1.184.66M196.668 113.29a1.41 1.41 0 0 1-.414-.067l-5.14-1.606a1.383 1.383 0 0 1-.907-1.726c.23-.73 1-1.137 1.73-.91l5.141 1.613c.727.23 1.133 1 .906 1.726-.187.59-.73.97-1.316.97M178.664 107.656c-.137 0-.273-.015-.41-.058l-5.14-1.61a1.385 1.385 0 0 1-.907-1.73c.227-.727 1-1.133 1.727-.903l5.144 1.61c.727.23 1.129 1 .902 1.726-.183.59-.726.965-1.316.965M187.07 103.227a1.379 1.379 0 0 1-1.32-1.781l1.578-5.153a1.38 1.38 0 0 1 1.723-.918c.73.227 1.137 1 .914 1.727l-1.578 5.148a1.375 1.375 0 0 1-1.317.977M181.543 121.262a1.383 1.383 0 0 1-1.32-1.781l1.582-5.153a1.377 1.377 0 1 1 2.633.805l-1.579 5.156c-.18.594-.726.973-1.316.973M272.148 46.078a4.429 4.429 0 0 0-4.379 5.117 4.403 4.403 0 0 0 1.77 2.895 4.406 4.406 0 0 0 3.297.793 4.44 4.44 0 0 0 3.687-5.067 4.434 4.434 0 0 0-4.375-3.738Zm-.02 11.617a7.153 7.153 0 0 1-4.214-1.375 7.163 7.163 0 0 1-2.871-4.695c-.617-3.914 2.066-7.602 5.984-8.219 3.91-.625 7.602 2.067 8.22 5.98.616 3.915-2.067 7.606-5.981 8.223a7.425 7.425 0 0 1-1.137.086"/></svg>