<svg xmlns="http://www.w3.org/2000/svg" width="1080" viewBox="0 0 810 810" height="1080" version="1.0"><defs><clipPath id="a"><path d="M255 196h490v420H255Zm0 0"/></clipPath><clipPath id="b"><path d="m404.996 55.742 349.488 349.485-349.488 349.488L55.508 405.227Zm0 0"/></clipPath><clipPath id="c"><path d="m404.996 55.742 349.488 349.485-349.488 349.488L55.508 405.227Zm0 0"/></clipPath></defs><g clip-path="url(#a)"><g clip-path="url(#b)"><g clip-path="url(#c)"><path fill="#fff" d="M744.16 405.848c0-.856-.062-1.703-.187-2.547a17.057 17.057 0 0 0-.555-2.496c-.246-.817-.55-1.61-.91-2.383a17.404 17.404 0 0 0-2.813-4.246 17.531 17.531 0 0 0-1.84-1.774 17.503 17.503 0 0 0-4.352-2.648L279.415 197.648a17.238 17.238 0 0 0-4.723-1.281 17.075 17.075 0 0 0-2.445-.133c-.82.012-1.637.082-2.445.211-.809.13-1.606.313-2.39.551-.782.242-1.548.535-2.29.883s-1.457.742-2.14 1.191c-.688.45-1.34.942-1.958 1.48a17.728 17.728 0 0 0-3.195 3.708 17.936 17.936 0 0 0-1.176 2.152c-.34.746-.629 1.512-.863 2.297a17.317 17.317 0 0 0-.726 4.836c-.008.82.042 1.637.148 2.45.11.812.273 1.612.492 2.402l46.399 169.94 162.628.06a17.58 17.58 0 0 1 6.457 1.531 17.39 17.39 0 0 1 2.895 1.656 17.35 17.35 0 0 1 4.594 4.79 17.27 17.27 0 0 1 2.477 6.156c.214 1.097.32 2.202.32 3.32 0 1.113-.106 2.222-.32 3.316a17.27 17.27 0 0 1-2.477 6.156 17.35 17.35 0 0 1-4.594 4.79 17.12 17.12 0 0 1-2.894 1.656c-1.016.46-2.07.816-3.157 1.074-1.086.258-2.183.41-3.3.457l-162.641.047-46.36 170.05a17.419 17.419 0 0 0 .004 9.067c.403 1.484.989 2.89 1.758 4.223a17.443 17.443 0 0 0 2.793 3.617l.828.828a17.506 17.506 0 0 0 8.727 4.09 17.34 17.34 0 0 0 4.863.09 17.21 17.21 0 0 0 4.7-1.254l454.113-192.13a17.55 17.55 0 0 0 6.184-4.418 18.165 18.165 0 0 0 1.558-2.019c.469-.71.887-1.453 1.25-2.226a17.474 17.474 0 0 0 1.652-7.414Zm0 0"/></g></g></g></svg>