<svg xmlns="http://www.w3.org/2000/svg" width="1080" viewBox="0 0 810 810" height="1080" version="1.0"><defs><clipPath id="a"><path d="M45 438h719.918v372H45Zm0 0"/></clipPath></defs><path fill="#fff" d="M-81-81h972v972H-81z"/><path fill="#fff" d="M-81-81h972v972H-81z"/><path fill="#fff" d="M-81-81h972v972H-81z"/><path fill="#fff" d="M-81-81h972v972H-81z"/><path fill="#324860" d="M755.68 801.195H54.504s9.086-347.203 350.59-353.492c0 0 350.586-.316 350.586 353.492"/><g clip-path="url(#a)"><path fill="#324860" d="M755.68 801.195v-8.738H54.504v8.738l8.734.242v-.171c.106-4.543 3.739-90.227 48.352-174.477 22.289-42.14 54.64-83.867 101.805-115.488 47.164-31.625 109.25-53.324 191.84-54.863l-.141-8.735v8.735s1.328 0 3.844.105c9.464.312 35.562 1.852 69.242 9.016 50.554 10.796 117.98 34.347 172.343 85.054 27.18 25.403 51.215 57.516 68.508 98.54 17.328 41.023 27.914 90.995 27.914 152.042h8.735v-8.738 8.738h8.734c.035-89.703-22.254-157.843-56.039-209.035-25.328-38.367-56.98-67.2-90.098-88.722-49.715-32.29-102.68-48.329-143.347-56.364-40.664-8.039-69.067-8.11-69.836-8.11h-.176c-86.816 1.575-153.3 24.985-203.61 59.407-37.73 25.824-66.343 57.727-87.968 90.957-32.422 49.867-49.227 102.598-58.031 142.922-8.805 40.36-9.54 68.316-9.54 68.734-.07 2.375.805 4.649 2.481 6.325a8.712 8.712 0 0 0 6.254 2.62H755.68a8.735 8.735 0 0 0 6.183-2.55c1.645-1.606 2.551-3.879 2.551-6.184h-8.734"/></g><path fill="#324860" d="M218.426 195.512c0-103.121 83.57-186.723 186.668-186.723 103.097 0 186.664 83.602 186.664 186.723 0 103.117-83.567 186.738-186.664 186.738-103.098 0-186.668-83.621-186.668-186.738"/><path fill="#324860" d="M218.426 195.512h8.734c0-49.203 19.88-93.617 52.09-125.867 32.246-32.22 76.652-52.137 125.844-52.137 49.191 0 93.594 19.918 125.84 52.137 32.21 32.25 52.09 76.664 52.09 125.867 0 49.164-19.88 93.613-52.09 125.832-32.246 32.254-76.684 52.136-125.84 52.172-49.192-.036-93.598-19.918-125.809-52.172-32.246-32.219-52.125-76.668-52.125-125.832h-17.469c0 107.941 87.45 195.441 195.403 195.476 107.953-.035 195.398-87.535 195.398-195.476C600.492 87.535 513.047.05 405.094.05S209.69 87.535 209.69 195.51h8.735"/></svg>