<svg xmlns="http://www.w3.org/2000/svg" width="40" height="40"><path fill="#98ccfd" d="M23.5 20c0 1.935-1.565 3.5-3.5 3.5s-3.5-1.565-3.5-3.5 1.565-3.5 3.5-3.5 3.5 1.565 3.5 3.5z"/><path fill="#4788c7" d="M20 24c-2.206 0-4-1.794-4-4s1.794-4 4-4 4 1.794 4 4-1.794 4-4 4zm0-7c-1.654 0-3 1.346-3 3s1.346 3 3 3 3-1.346 3-3-1.346-3-3-3z"/><path fill="#98ccfd" d="M39.5 20c0-2.796-2.912-5.232-7.492-6.787.576-2.671.655-5.055.166-6.881-.408-1.522-1.181-2.617-2.296-3.253-.671-.382-1.438-.577-2.279-.577-2.207 0-4.893 1.401-7.597 3.791C17.296 3.902 14.609 2.5 12.4 2.5c-.842 0-1.608.194-2.279.577-1.115.637-1.889 1.733-2.296 3.256-.489 1.826-.41 4.21.165 6.88C3.412 14.768.5 17.205.5 20s2.912 5.232 7.491 6.786c-.576 2.67-.655 5.054-.165 6.88.407 1.524 1.181 2.619 2.297 3.257.671.382 1.438.577 2.279.577h.001c2.208 0 4.894-1.401 7.598-3.793 2.704 2.389 5.39 3.789 7.597 3.79h.001c.842 0 1.608-.194 2.28-.577 1.114-.636 1.887-1.731 2.294-3.253.489-1.826.41-4.21-.165-6.88C36.587 25.233 39.5 22.796 39.5 20zM28.888 4.817c.634.362 1.09 1.046 1.354 2.033.401 1.496.322 3.509-.158 5.79a36.288 36.288 0 0 0-5.208-.938 37.376 37.376 0 0 0-3.44-4.041c2.397-2.087 4.598-3.158 6.163-3.158.49 0 .923.106 1.289.314zm-3.104 18.47a44.493 44.493 0 0 1-2.003 3.119 44.027 44.027 0 0 1-7.566 0A43.284 43.284 0 0 1 12.481 20a43.13 43.13 0 0 1 3.736-6.407A43.603 43.603 0 0 1 20 13.431c1.315 0 2.577.057 3.781.162a43.146 43.146 0 0 1 3.736 6.406 42.79 42.79 0 0 1-1.733 3.288zm2.774-.895c.41 1.036.756 2.052 1.041 3.035-.99.258-2.057.478-3.194.655.377-.582.748-1.174 1.106-1.787.37-.632.715-1.267 1.047-1.903zM20 30.983a33.061 33.061 0 0 1-2.205-2.47 46.89 46.89 0 0 0 2.205.055c.747 0 1.48-.021 2.203-.055A32.636 32.636 0 0 1 20 30.983zm-6.407-4.901a32.577 32.577 0 0 1-3.193-.655c.285-.983.63-1.998 1.04-3.034.332.635.677 1.271 1.046 1.903.358.612.73 1.204 1.107 1.786zm-2.153-8.475a33.933 33.933 0 0 1-1.04-3.034c.99-.258 2.057-.478 3.194-.655a46.062 46.062 0 0 0-1.107 1.786c-.37.633-.715 1.268-1.047 1.903zm8.561-8.589a32.394 32.394 0 0 1 2.202 2.469c-.723-.034-1.456-.055-2.203-.055s-1.48.021-2.203.055a32.618 32.618 0 0 1 2.204-2.469zm7.51 6.686a45.344 45.344 0 0 0-1.106-1.787c1.137.177 2.204.397 3.194.655a33.983 33.983 0 0 1-1.041 3.036 45.94 45.94 0 0 0-1.047-1.904zM9.757 6.851c.265-.989.721-1.674 1.355-2.037.366-.208.799-.314 1.288-.314 1.567 0 3.768 1.072 6.166 3.161a37.405 37.405 0 0 0-3.443 4.042 36.284 36.284 0 0 0-5.208.939c-.48-2.283-.559-4.296-.158-5.791zM2.5 20c0-1.729 2.231-3.566 5.983-4.857A37.312 37.312 0 0 0 10.28 20a37.312 37.312 0 0 0-1.797 4.857C4.731 23.566 2.5 21.729 2.5 20zm9.901 15.5c-.49 0-.924-.106-1.288-.313-.636-.363-1.092-1.048-1.356-2.037-.401-1.496-.322-3.509.158-5.79 1.596.417 3.342.734 5.207.938a37.312 37.312 0 0 0 3.444 4.043c-2.398 2.088-4.599 3.159-6.165 3.159zm17.84-2.35c-.265.987-.72 1.671-1.354 2.033-.365.208-.799.314-1.289.314-1.566 0-3.767-1.071-6.164-3.157a37.379 37.379 0 0 0 3.441-4.042 36.412 36.412 0 0 0 5.207-.938c.481 2.281.56 4.294.159 5.79zm1.274-8.292A37.377 37.377 0 0 0 29.718 20a37.377 37.377 0 0 0 1.797-4.858C35.268 16.433 37.5 18.271 37.5 20c0 1.729-2.232 3.567-5.985 4.858z"/><path fill="#4788c7" d="M12.402 38c-.93 0-1.78-.216-2.528-.642-1.237-.708-2.089-1.906-2.532-3.563-.472-1.762-.446-4.064.07-6.682C2.694 25.42 0 22.842 0 20s2.694-5.42 7.412-7.114c-.517-2.617-.542-4.92-.07-6.682.443-1.656 1.295-2.854 2.531-3.561 2.52-1.438 6.178-.393 10.128 2.988 3.949-3.378 7.604-4.422 10.125-2.986 1.235.705 2.087 1.902 2.531 3.558.472 1.763.446 4.066-.071 6.683C37.305 14.579 40 17.158 40 20c0 2.842-2.695 5.421-7.414 7.115.518 2.617.542 4.919.07 6.682-.443 1.656-1.294 2.853-2.529 3.558-2.523 1.438-6.181.391-10.127-2.985-2.776 2.377-5.396 3.63-7.598 3.63zM12.4 3c-.753 0-1.437.172-2.031.511-.996.57-1.689 1.563-2.06 2.951-.458 1.707-.398 4.005.171 6.646l.094.436-.422.144C3.606 15.23 1 17.531 1 20s2.606 4.77 7.151 6.313l.422.144-.094.436c-.569 2.641-.629 4.939-.171 6.646.371 1.389 1.064 2.382 2.062 2.952.595.337 1.278.509 2.031.509h.001c2.012 0 4.592-1.302 7.267-3.667L20 33.04l.331.293c2.674 2.362 5.255 3.664 7.267 3.664.754 0 1.438-.172 2.034-.511.994-.568 1.687-1.56 2.058-2.948.458-1.707.398-4.004-.171-6.645l-.094-.436.422-.144C36.393 24.771 39 22.469 39 20c0-2.47-2.607-4.771-7.153-6.313l-.422-.144.095-.436c.569-2.641.629-4.939.171-6.646-.372-1.389-1.065-2.38-2.061-2.948-.595-.339-1.278-.511-2.031-.511-2.011 0-4.591 1.302-7.267 3.666l-.331.293-.331-.293C16.994 4.303 14.413 3 12.4 3zm.001 33c-.577 0-1.094-.127-1.535-.379-.756-.432-1.292-1.22-1.593-2.342-.408-1.527-.355-3.61.152-6.022l.108-.513.507.132c1.591.415 3.317.727 5.135.925l.217.024.131.175a37.112 37.112 0 0 0 3.397 3.989l.374.379-.401.35C16.464 34.834 14.158 36 12.401 36zm-2.098-8.027c-.468 2.04-.482 3.777-.063 5.047.278.841.605 1.438 1.121 1.732 1.294.739 3.813-.237 6.473-2.446a38.373 38.373 0 0 1-2.984-3.536 37.174 37.174 0 0 1-4.547-.797zm17.296 8.024c-1.757 0-4.063-1.165-6.491-3.28l-.401-.349.374-.379a36.993 36.993 0 0 0 3.394-3.988l.13-.176.218-.024a35.868 35.868 0 0 0 5.137-.925l.508-.132.107.513c.507 2.414.56 4.496.151 6.022-.301 1.121-.836 1.908-1.589 2.338-.444.253-.961.38-1.538.38zm-5.433-3.691c2.66 2.207 5.171 3.184 6.475 2.443.513-.292.839-.889 1.117-1.728.422-1.271.405-3.008-.062-5.047a37.331 37.331 0 0 1-4.549.797 38.093 38.093 0 0 1-2.981 3.535zM20 31.695l-.355-.36a33.42 33.42 0 0 1-2.238-2.508l-.7-.867 1.112.053c1.431.068 2.931.068 4.361 0l1.111-.053-.698.866a33.694 33.694 0 0 1-2.237 2.507l-.356.362zm-1.102-2.641c.359.417.728.822 1.102 1.212a33.73 33.73 0 0 0 1.101-1.212 42.58 42.58 0 0 1-2.203 0zM20 27.068c-1.284 0-2.571-.055-3.827-.164l-.232-.02-.134-.191a45.484 45.484 0 0 1-2.025-3.154 44.453 44.453 0 0 1-1.753-3.325L11.927 20l.102-.214a44.258 44.258 0 0 1 1.753-3.325 44.75 44.75 0 0 1 2.027-3.155l.134-.19.232-.02a44.812 44.812 0 0 1 7.649 0l.232.02.134.191a44.85 44.85 0 0 1 2.025 3.154 43.378 43.378 0 0 1 1.753 3.326l.101.213-.101.214a43.565 43.565 0 0 1-3.778 6.48l-.134.191-.232.02c-1.254.108-2.54.163-3.824.163zm-3.509-1.14a43.93 43.93 0 0 0 7.015 0 43.949 43.949 0 0 0 1.847-2.893A42.289 42.289 0 0 0 26.963 20a42.289 42.289 0 0 0-1.61-3.035 43.539 43.539 0 0 0-1.847-2.893 43.904 43.904 0 0 0-7.013 0 43.958 43.958 0 0 0-1.849 2.894A43.072 43.072 0 0 0 13.034 20a43.345 43.345 0 0 0 1.61 3.035 45.463 45.463 0 0 0 1.847 2.893zm8.886.821.607-.938c.373-.576.74-1.162 1.095-1.767a44.92 44.92 0 0 0 1.035-1.883l.506-.968.402 1.016c.405 1.023.761 2.06 1.057 3.081l.143.494-.497.129a33.478 33.478 0 0 1-3.243.665l-1.105.171zm3.102-3.149a39.125 39.125 0 0 1-1.05 1.8c.528-.1 1.042-.209 1.54-.329-.15-.49-.314-.981-.49-1.471zm-13.858 3.149-1.105-.172a33.25 33.25 0 0 1-3.241-.665l-.497-.129.143-.493a34.11 34.11 0 0 1 1.056-3.08l.402-1.017.506.97a43.74 43.74 0 0 0 1.034 1.882 45.84 45.84 0 0 0 1.095 1.767l.607.937zm-3.592-1.68c.496.119 1.01.229 1.537.329a36.768 36.768 0 0 1-1.048-1.798c-.176.492-.339.982-.489 1.469zm20.151.433-.146-.505a36.842 36.842 0 0 0-1.772-4.792L29.17 20l.092-.204a36.837 36.837 0 0 0 1.773-4.792l.146-.505.498.171C35.637 16.031 38 18.024 38 20c0 1.977-2.363 3.969-6.322 5.331l-.498.171zM30.265 20a38.236 38.236 0 0 1 1.579 4.209C34.993 23.039 37 21.412 37 20s-2.007-3.039-5.156-4.209A38.212 38.212 0 0 1 30.265 20zM8.817 25.501l-.497-.171C4.363 23.968 2 21.976 2 20s2.363-3.968 6.32-5.33l.497-.171.146.505a36.874 36.874 0 0 0 1.772 4.792l.093.204-.092.204a36.728 36.728 0 0 0-1.772 4.792l-.147.505zm-.662-9.71C5.006 16.962 3 18.589 3 20s2.006 3.038 5.155 4.209c.421-1.375.95-2.787 1.578-4.209a38.001 38.001 0 0 1-1.578-4.209zm3.223 3.018-.402-1.017a34.424 34.424 0 0 1-1.056-3.08l-.143-.493.497-.129a33.395 33.395 0 0 1 3.242-.665l1.106-.172-.61.939c-.373.575-.74 1.161-1.095 1.766a43.15 43.15 0 0 0-1.034 1.882l-.505.969zm-.349-3.878c.149.487.313.978.489 1.469.174-.316.352-.632.536-.948.168-.287.339-.57.512-.85-.527.099-1.041.21-1.537.329zm17.591 3.878-.506-.969a44.297 44.297 0 0 0-1.035-1.883 45.84 45.84 0 0 0-1.095-1.767l-.607-.938 1.104.172c1.137.177 2.229.401 3.243.666l.497.129-.143.494a34.436 34.436 0 0 1-1.057 3.081l-.401 1.015zm-1.19-4.208a39.125 39.125 0 0 1 1.05 1.8c.176-.491.34-.982.49-1.47-.497-.12-1.012-.23-1.54-.33zm3.035-1.344-.507-.132a35.742 35.742 0 0 0-5.137-.925l-.218-.024-.13-.176a36.695 36.695 0 0 0-3.394-3.987l-.374-.379.401-.35c3.229-2.811 6.243-3.919 8.027-2.901.755.431 1.29 1.218 1.591 2.338.408 1.527.355 3.61-.152 6.023l-.107.513zm-5.318-2.028c1.597.183 3.123.451 4.549.798.517-1.907.59-3.595.063-5.048-.302-.83-.604-1.435-1.119-1.729-1.298-.74-3.812.236-6.473 2.444a38.254 38.254 0 0 1 2.98 3.535zM9.534 13.257l-.108-.513c-.508-2.413-.561-4.495-.152-6.022.301-1.123.836-1.911 1.591-2.341 1.789-1.02 4.801.091 8.03 2.904l.402.35-.375.379a36.676 36.676 0 0 0-3.396 3.987l-.13.176-.218.024c-1.818.199-3.547.51-5.137.925l-.507.131zM12.4 5c-.401 0-.751.083-1.041.249-.514.293-.774.916-1.119 1.731-.54 1.275-.449 3.011.063 5.047a37.363 37.363 0 0 1 4.549-.798 37.952 37.952 0 0 1 2.983-3.534C15.766 5.977 13.803 5 12.4 5zm4.309 7.039.699-.866c.71-.88 1.463-1.723 2.237-2.507l.355-.36.355.36c.777.787 1.529 1.63 2.236 2.506l.697.866-1.11-.052a47.291 47.291 0 0 0-4.359 0l-1.11.053zM20 10.932c.37 0 .737.005 1.101.014a31.814 31.814 0 0 0-1.1-1.211 31.99 31.99 0 0 0-1.101 1.211c.364-.009.73-.014 1.1-.014z"/></svg>