<svg xmlns="http://www.w3.org/2000/svg" width="1080" viewBox="0 0 810 810" height="1080" version="1.0"><path fill="#fff" d="M-81-81h972v972H-81z"/><path fill="#fff" d="M-81-81h972v972H-81z"/><path fill="#fff" d="M-81-81h972v972H-81z"/><path fill="#324860" d="M786.105 387.988 421.81 23.691C407.023 9.113 386.773 0 364.5 0H81C36.246 0 0 36.246 0 81v283.5c0 22.477 9.113 42.727 23.895 57.309l364.5 364.5C402.977 800.887 423.227 810 445.5 810a81.163 81.163 0 0 0 57.309-23.691l283.5-283.5C800.887 488.023 810 467.773 810 445.5c0-22.477-9.113-42.727-23.895-57.512ZM141.75 202.5c-33.613 0-60.75-27.137-60.75-60.75S108.137 81 141.75 81s60.75 27.137 60.75 60.75-27.137 60.75-60.75 60.75Zm0 0"/></svg>